<svg width="1400" height="940" viewBox="0 0 1400 940" fill="none" xmlns="http://www.w3.org/2000/svg">
  <defs>
    <linearGradient id="bg" x1="160" y1="70" x2="1220" y2="860" gradientUnits="userSpaceOnUse">
      <stop stop-color="#EAF4FB"/>
      <stop offset="1" stop-color="#D2E6F5"/>
    </linearGradient>
    <linearGradient id="paper" x1="300" y1="120" x2="1100" y2="820" gradientUnits="userSpaceOnUse">
      <stop stop-color="#FDFEFF"/>
      <stop offset="1" stop-color="#F1F7FB"/>
    </linearGradient>
    <linearGradient id="accent" x1="0" y1="0" x2="1" y2="1">
      <stop stop-color="#6CAED8"/>
      <stop offset="1" stop-color="#4E85A9"/>
    </linearGradient>
    <filter id="shadow" x="172" y="86" width="1056" height="770" filterUnits="userSpaceOnUse" color-interpolation-filters="sRGB">
      <feFlood flood-opacity="0" result="BackgroundImageFix"/>
      <feColorMatrix in="SourceAlpha" type="matrix" values="0 0 0 0 0 0 0 0 0 0 0 0 0 0 0 0 0 0 127 0" result="hardAlpha"/>
      <feOffset dy="20"/>
      <feGaussianBlur stdDeviation="24"/>
      <feColorMatrix type="matrix" values="0 0 0 0 0.117647 0 0 0 0 0.207843 0 0 0 0 0.290196 0 0 0 0.16 0"/>
      <feBlend mode="normal" in2="BackgroundImageFix" result="effect1_dropShadow_1_1"/>
      <feBlend mode="normal" in="SourceGraphic" in2="effect1_dropShadow_1_1" result="shape"/>
    </filter>
  </defs>

  <rect width="1400" height="940" fill="url(#bg)"/>

  <g filter="url(#shadow)">
    <rect x="220" y="114" width="960" height="674" rx="28" fill="url(#paper)"/>
    <rect x="220" y="114" width="960" height="674" rx="28" stroke="#D3E0EA"/>
  </g>

  <rect x="260" y="154" width="880" height="116" rx="22" fill="#F7FBFE" stroke="#D5E2EB"/>
  <rect x="294" y="183" width="120" height="10" rx="5" fill="#A7B8C5"/>
  <rect x="670" y="183" width="120" height="10" rx="5" fill="#A7B8C5"/>
  <rect x="1018" y="183" width="88" height="10" rx="5" fill="#A7B8C5"/>
  <text x="700" y="232" text-anchor="middle" font-size="54" font-family="Georgia, 'Times New Roman', serif" font-weight="700" fill="#151617">Market Scanner Daily</text>
  <text x="700" y="257" text-anchor="middle" font-size="13" font-family="Arial, Helvetica, sans-serif" letter-spacing="2.6" fill="#4E7A97">THURSDAY, APRIL 2, 2026</text>

  <rect x="260" y="294" width="880" height="188" rx="24" fill="#FCFEFF" stroke="#D5E2EB"/>
  <rect x="290" y="320" width="104" height="24" rx="12" fill="url(#accent)"/>
  <text x="342" y="336" text-anchor="middle" font-size="11" font-family="Arial, Helvetica, sans-serif" letter-spacing="2.1" fill="white">FRONT PAGE</text>

  <rect x="292" y="364" width="530" height="14" rx="7" fill="#48525C"/>
  <rect x="292" y="388" width="494" height="14" rx="7" fill="#48525C"/>
  <rect x="292" y="420" width="500" height="10" rx="5" fill="#7B8A97"/>
  <rect x="292" y="439" width="484" height="10" rx="5" fill="#7B8A97"/>
  <rect x="292" y="458" width="441" height="10" rx="5" fill="#7B8A97"/>

  <rect x="860" y="334" width="248" height="64" rx="18" fill="#F0F7FC" stroke="#D5E2EB"/>
  <text x="890" y="358" font-size="11" font-family="Arial, Helvetica, sans-serif" letter-spacing="2.1" fill="#4E7A97">AT A GLANCE</text>
  <rect x="890" y="373" width="170" height="8" rx="4" fill="#63727E"/>
  <rect x="890" y="389" width="154" height="8" rx="4" fill="#63727E"/>

  <rect x="860" y="410" width="248" height="58" rx="18" fill="#F0F7FC" stroke="#D5E2EB"/>
  <text x="890" y="434" font-size="11" font-family="Arial, Helvetica, sans-serif" letter-spacing="2.1" fill="#4E7A97">TODAY'S FRAME</text>
  <rect x="890" y="449" width="176" height="8" rx="4" fill="#63727E"/>

  <rect x="260" y="506" width="880" height="92" rx="22" fill="#FCFEFF" stroke="#D5E2EB"/>
  <rect x="290" y="530" width="172" height="24" rx="12" fill="url(#accent)"/>
  <text x="376" y="546" text-anchor="middle" font-size="11" font-family="Arial, Helvetica, sans-serif" letter-spacing="2.1" fill="white">CROSS-ASSET DASHBOARD</text>
  <rect x="292" y="566" width="146" height="10" rx="5" fill="#5A6975"/>
  <rect x="470" y="566" width="146" height="10" rx="5" fill="#5A6975"/>
  <rect x="648" y="566" width="146" height="10" rx="5" fill="#5A6975"/>
  <rect x="826" y="566" width="146" height="10" rx="5" fill="#5A6975"/>
  <rect x="1004" y="566" width="104" height="10" rx="5" fill="#5A6975"/>

  <rect x="260" y="622" width="274" height="132" rx="22" fill="#FCFEFF" stroke="#D5E2EB"/>
  <rect x="286" y="646" width="146" height="24" rx="12" fill="url(#accent)"/>
  <text x="359" y="662" text-anchor="middle" font-size="11" font-family="Arial, Helvetica, sans-serif" letter-spacing="2.1" fill="white">ABNORMAL MOVES</text>
  <rect x="286" y="687" width="188" height="10" rx="5" fill="#5A6975"/>
  <rect x="286" y="705" width="164" height="10" rx="5" fill="#7B8A97"/>
  <rect x="286" y="723" width="174" height="10" rx="5" fill="#7B8A97"/>

  <rect x="563" y="622" width="274" height="132" rx="22" fill="#FCFEFF" stroke="#D5E2EB"/>
  <rect x="589" y="646" width="150" height="24" rx="12" fill="url(#accent)"/>
  <text x="664" y="662" text-anchor="middle" font-size="11" font-family="Arial, Helvetica, sans-serif" letter-spacing="2.1" fill="white">SPECIAL SITUATIONS</text>
  <rect x="589" y="687" width="188" height="10" rx="5" fill="#5A6975"/>
  <rect x="589" y="705" width="164" height="10" rx="5" fill="#7B8A97"/>
  <rect x="589" y="723" width="174" height="10" rx="5" fill="#7B8A97"/>

  <rect x="866" y="622" width="274" height="132" rx="22" fill="#FCFEFF" stroke="#D5E2EB"/>
  <rect x="892" y="646" width="144" height="24" rx="12" fill="url(#accent)"/>
  <text x="964" y="662" text-anchor="middle" font-size="11" font-family="Arial, Helvetica, sans-serif" letter-spacing="2.1" fill="white">CATALYST CALENDAR</text>
  <rect x="892" y="687" width="188" height="10" rx="5" fill="#5A6975"/>
  <rect x="892" y="705" width="164" height="10" rx="5" fill="#7B8A97"/>
  <rect x="892" y="723" width="174" height="10" rx="5" fill="#7B8A97"/>

  <text x="700" y="844" text-anchor="middle" font-size="18" font-family="Arial, Helvetica, sans-serif" fill="#40515F">README mockup of the HTML edition shown on GitHub</text>
</svg>
